. 
  
http://www.torrentday.com/        :     The Hottest Private Tracker On The Net!!!
 
http://www.torrentday.com          :     Once & For all ;)


               www . TorrentDay . Com 

(((((((((((((= Enjoy No RAR releases =))))))))))))))))))))


...................................NFO:....................................

.[pre]  
    *********** ****    ****      ***      ******** *********** ****    *** **********
           *+*     +*+*+* *+*+*+   *+* *+*   *+*    *+*    *+*     *+*+*   *+* *+*        
           +*+     +*+ +*+*+ +*+  +*+   +*+  +*+           +*+     *+*+*+  +*+ +*+        
           +$+     +$+  +*+  +$+ +$++*++$++* *$*           +$+     +$+ +*+ +$+ +$++*++$  
           +$+     +$+       +$+ +$+     +$+ +$+   +$+$    +$+     +$+  +$+$+$ +$+        
           $+$     $+$       $+$ $+$     $+$ $+$    $+$    $+$     $+$   $+$+$ $+$        
       $$$$$$$$$$$ $$$       $$$ $$$     $$$  $$$$$$$$ $$$$$$$$$$$ $$$    $$$$ $$$$$$$$$$     
                                                



                           Another Fine Release Brought to you from - IMAGiNE                   
                                                 

********************************************************************************************************************                                
                                Burlesque DVDRiP AC3 XViD - IMAGiNE
********************************************************************************************************************

Ripper ...........: IMAGiNE                                        IMDB Rating.......:6.1/10                             
Video Codec.......: XVID                                         Release Date......:07/02/11
Audio Codec.......:AC3                                           Theatre Date......:24/11/10
Audio Bitrate.....:448                                              Runtime.......:1h 58mn
Subtitles.........:NIL                                                 Language..........:ENGLISH
Resolution...... 720 x 304                                      IMDb URL..........:http://www.imdb.com/title/tt1126591/


[color=yellow]DETAILS:[/color]

Video
ID                               : 0
Format                           : MPEG-4 Visual
Format profile                   : Advanced Simple@L5
Format settings, BVOP            : Yes
Format settings, QPel            : No
Format settings, GMC             : No warppoints
Format settings, Matrix          : Default (MPEG)
Muxing mode                      : Packed bitstream
Codec ID                         : XVID
Codec ID/Hint                    : XviD
Duration                         : 1h 58mn
Bit rate                         : 2 014 Kbps
Width                            : 720 pixels
Height                           : 304 pixels
Display aspect ratio             : 2.35
Frame rate                       : 23.976 fps
Resolution                       : 24 bits
Colorimetry                      : 4:2:0
Scan type                        : Progressive
Bits/(Pixel*Frame)               : 0.384
Stream size                      : 1.67 GiB (81%)
Writing library                  : XviD 61

Audio
ID                               : 1
Format                           : AC-3
Format/Info                      : Audio Coding 3
Codec ID                         : 2000
Duration                         : 1h 58mn
Bit rate mode                    : Constant
Bit rate                         : 448 Kbps
Channel(s)                       : 6 channels
Channel positions                : Front: L C R, Surround: L R, LFE
Sampling rate                    : 48.0 KHz
Stream size                      : 381 MiB (18%)
Alignment                        : Aligned on interleaves
Interleave, duration             : 42 ms (1.00 video frame)
Interleave, preload duration     : 512 ms


[color=yellow]SOURCES:[/color]

VIDEO:Burlesque DVD ....... Thanks Bow
AUDIO:Burlesque DVD ....... Thanks Bow

[color=yellow]NOTES:[/color]

IMAGiNE bringing you another release..........Burlesque

Ok this is pretty much a straight forward rip of Bow's dvdr release,but with a few tweaks .
Firstly made a script to crop (borders only),resize,brightness,contrast,rgb colours,sharpeness....
Once done it was a case of dropping it into vdub and and letting it rip.
Once done we remuxed the nice 5.1 track back to our encode...
Opted for a bigger file size release,considering the flick is almost 2hrs long and we want to keep the 
original audio file aswell as a decent bitrate,to hold the quality.

Anyway Enjoy folks :)

[color=yellow]SCREENS:[/color]


[color=yellow]GREETS:[/color]

FLAWL3SS,ViSiON,FUSiON,Rx,SecretMyth,BirdFlu,ELEKTRI4KA,Serenity,Autotron
And to all the other p2p grps past and present 

[COLOR=RED]Looking for these,syncers,cammers,audio,silver supplier.....Have anything to offer????......
Contact us imaginegroup@hushmail.com[/COLOR][/pre]